<svg viewBox="0 0 40 40" xmlns="http://www.w3.org/2000/svg">
<path d="M37.6001 0.800049C38.5601 0.800049 39.2001 1.44005 39.2001 2.40005V37.6001C39.2001 38.5601 38.5601 39.2001 37.6001 39.2001H27.5856V24.8H33.0896L34.6896 18.4H27.5856V14.8352C27.5856 13.1584 28.0512 12.0144 30.4577 12.0144L33.5264 12.0128V6.82885C32.9952 6.75845 31.1744 6.60005 29.0544 6.60005C24.6288 6.60005 21.6 9.30085 21.6 14.2608V18.4H16.8V24.8H21.6V39.2001H2.40005C1.44005 39.2001 0.800049 38.5601 0.800049 37.6001V2.40005C0.800049 1.44005 1.44005 0.800049 2.40005 0.800049H37.6001Z" fill="currentColor"/>
</svg>
