<svg viewBox="0 0 40 40" xmlns="http://www.w3.org/2000/svg"><path d="M37.6.8H2.4C1.44.8.8 1.44.8 2.4v35.2c0 .96.64 1.6 1.6 1.6h35.2c.96 0 1.6-.64 1.6-1.6V2.4c0-.96-.64-1.6-1.6-1.6ZM12.16 33.6h-5.6V15.2h5.76v18.4h-.16ZM9.28 12.64c-1.76 0-3.36-1.44-3.36-3.36 0-1.76 1.44-3.36 3.36-3.36 1.76 0 3.36 1.44 3.36 3.36s-1.44 3.36-3.36 3.36ZM33.6 33.6h-5.76v-8.96c0-2.08 0-4.8-2.88-4.8-3.04 0-3.36 2.24-3.36 4.64v9.12h-5.76V15.2h5.44v2.56c.8-1.44 2.56-2.88 5.44-2.88 5.76 0 6.88 3.84 6.88 8.8v9.92Z" fill="currentColor"/></svg>