<svg viewBox="0 0 40 32" fill="none" xmlns="http://www.w3.org/2000/svg"><path d="M39.2 4.16c-1.44.64-2.88 1.12-4.48 1.28 1.6-.96 2.88-2.56 3.52-4.32-1.6.96-3.2 1.6-4.96 1.92A7.746 7.746 0 0 0 27.52.48C23.2.48 19.68 4 19.68 8.32c0 .64 0 1.28.16 1.76-6.72-.32-12.48-3.52-16.32-8.32-.8 1.28-1.12 2.56-1.12 4 0 2.72 1.44 5.12 3.52 6.56-1.28 0-2.56-.32-3.52-.96v.16c0 3.84 2.72 7.04 6.24 7.68-.64.16-1.28.32-2.08.32-.48 0-.96 0-1.44-.16.96 3.2 3.84 5.44 7.36 5.44-2.72 2.08-6.08 3.36-9.76 3.36-.64 0-1.28 0-1.92-.16 3.52 2.24 7.68 3.52 12 3.52 14.56 0 22.4-12 22.4-22.4v-.96c1.6-1.12 2.88-2.56 4-4Z" fill="currentColor"/></svg>