<svg viewBox="0 0 24 24" xmlns="http://www.w3.org/2000/svg"><path fill-rule="evenodd" clip-rule="evenodd" d="M9.253 4C5.145 4 2 6.788 2 9.828c0 3.04 2.715 4.801 2.715 4.801l-.442 1.673a.257.257 0 0 0 .376.29l1.984-1.124c.876.279 2.738.368 2.919.376a4.789 4.789 0 0 1-.194-1.31c0-2.346 2.043-5.65 6.583-5.65.103 0 .207.003.31.007C15.647 6 12.645 4 9.253 4ZM6.55 8.842a.902.902 0 1 1-.06-1.803.902.902 0 0 1 .06 1.803Zm5.241 0a.902.902 0 1 1-.06-1.803.902.902 0 0 1 .06 1.803Z" fill="currentColor"/><path fill-rule="evenodd" clip-rule="evenodd" d="M22 14.168c0-2.663-3.123-4.613-6.058-4.613-4.151 0-5.912 2.998-5.912 4.98 0 1.984 1.76 4.978 5.912 4.978.918 0 1.726-.131 2.429-.365l1.56.991a.163.163 0 0 0 .247-.174l-.354-1.538C21.298 17.4 22 15.781 22 14.167v.001Zm-7.957-.506a.797.797 0 1 1 0-1.594.797.797 0 0 1 0 1.594Zm3.984 0a.797.797 0 1 1 0-1.594.797.797 0 0 1 0 1.594Z" fill="currentColor"/></svg>