<svg viewBox="0 0 13 15" fill="none" xmlns="http://www.w3.org/2000/svg"><path d="M5.228 5.72c-.058.106-.81 1.427-2.253 3.969-.158.267-.347.402-.569.402H.314c-.247 0-.389-.241-.273-.463L2.258 5.73c.007 0 .007-.003 0-.01L.848 3.29c-.139-.25.01-.452.273-.452h2.092c.234 0 .427.131.578.392l1.437 2.49ZM12.294.453l-4.627 8.13v.01l2.943 5.354c.126.228.007.453-.273.453H8.242c-.244 0-.437-.129-.578-.392l-2.97-5.415 4.653-8.2C9.495.131 9.682 0 9.91 0h2.111c.257 0 .395.215.273.453Z" fill="currentColor"/></svg>