<svg viewBox="0 0 40 28" xmlns="http://www.w3.org/2000/svg"><path d="M38.88 6.32s-.32-2.72-1.6-3.84C35.84.88 34.24.88 33.44.88 28 .56 20 .56 20 .56s-8 0-13.44.32c-.8.16-2.4.16-3.84 1.6-1.12 1.12-1.6 3.84-1.6 3.84S.8 9.36.8 12.56v2.88c0 3.04.32 6.24.32 6.24s.32 2.72 1.6 3.84c1.44 1.6 3.36 1.44 4.16 1.6 3.04.32 13.12.32 13.12.32s8 0 13.44-.48c.8-.16 2.4-.16 3.84-1.6 1.12-1.12 1.6-3.84 1.6-3.84s.32-3.04.32-6.24V12.4c0-3.04-.32-6.08-.32-6.08ZM16 18.96V8.24l10.4 5.44L16 18.96Z" fill="currentColor"/></svg>