<svg viewBox="0 0 24 11" xmlns="http://www.w3.org/2000/svg"><path fill-rule="evenodd" clip-rule="evenodd" d="M10.894 1.343h-4.62v8.01h1.133l.15.964 1.531-.965h1.806V1.343ZM8.94 8.352l-.898.566-.088-.566h-.647V2.337h2.543v6.015h-.91ZM5.422 4.947H3.744c0-.096.004-.192.008-.29a9.99 9.99 0 0 0 .007-.257V2.337h1.915V1.85a.507.507 0 0 0-.152-.358.517.517 0 0 0-.363-.149h-2.99l.003-.008.03-.087C2.302.94 2.631 0 2.631 0a1.598 1.598 0 0 0-.904.262c-.214.15-.342.256-.514.73-.105.285-.203.565-.289.812-.078.225-.147.423-.203.573-.18.5-.617 1.382-.617 1.382.328-.004.651-.083.945-.228.42-.223.63-.564.77-1.082l.034-.112h.875v2.062c0 .138-.009.272-.018.405a15.31 15.31 0 0 0-.01.143H1.158a1.01 1.01 0 0 0-.927.612.99.99 0 0 0-.077.381h2.448a6.644 6.644 0 0 1-.292 1.369 6.299 6.299 0 0 1-1.13 1.977c-.368.397-.762.77-1.179 1.116 0 0 1.174.441 2.034-.357.52-.485.987-1.43 1.212-2.148.202-.639.342-1.295.42-1.96h2.237v-.515a.47.47 0 0 0-.296-.44.48.48 0 0 0-.184-.035ZM4.227 7.003l-.867.56 1.89 2.796a2.59 2.59 0 0 0 .252-.832 1.181 1.181 0 0 0-.106-.813L4.226 7.003Zm15.067-1.68V1.816c1.568-.077 2.996-.152 3.54-.181l.319-.02c.145-.149.332-.897.258-1.132-.027-.094-.08-.25-.24-.208-.527.125-1.063.216-1.603.272-1.002.117-1.457.15-2.783.246l-.143.01c-2.52.183-4.766.27-4.766.27a.945.945 0 0 0 .295.688.962.962 0 0 0 .706.265c.854-.036 2.1-.094 3.374-.154v3.451h-4.793c0 .264.106.516.294.703.189.187.444.291.71.291h3.789V8.97c0 .333-.174.447-.462.455h-1.47a1.557 1.557 0 0 0 .84.98c.327.109.674.144 1.016.104.51-.025 1.113-.31 1.113-1.34V6.318h4.23A.484.484 0 0 0 24 5.84v-.516h-4.707Zm-3.56-2.6c.096.059.18.137.247.23l1.082 1.492-.84.608-1.596-2.194.141-.102a.875.875 0 0 1 .965-.035Zm4.601 1.693 1.172-1.536a.873.873 0 0 1 1.222-.167l.14.104-1.694 2.223-.84-.624Z" fill="currentColor"/></svg>